HIERARCHY
ROOT Hips
{
	OFFSET -211.153198 91.653587 -35.738949
	CHANNELS 6 Xposition Yposition Zposition Zrotation Yrotation Xrotation 
	JOINT LeftUpLeg
	{
		OFFSET 0.103455 1.857827 10.548507
		CHANNELS 3 Zrotation Yrotation Xrotation
		JOINT LeftLeg
		{
			OFFSET 43.500000 -0.000031 0.000008
			CHANNELS 3 Zrotation Yrotation Xrotation
			JOINT LeftFoot
			{
				OFFSET 42.372192 0.000011 -0.000014
				CHANNELS 3 Zrotation Yrotation Xrotation
				JOINT LeftToe
				{
					OFFSET 17.299997 -0.000002 0.000013
					CHANNELS 3 Zrotation Yrotation Xrotation
					End Site
					{
						OFFSET 0.000000 0.000000 0.000000
					}
				}
			}
		}
	}
	JOINT RightUpLeg
	{
		OFFSET 0.103457 1.857826 -10.548499
		CHANNELS 3 Zrotation Yrotation Xrotation
		JOINT RightLeg
		{
			OFFSET 43.500046 -0.000019 0.000015
			CHANNELS 3 Zrotation Yrotation Xrotation
			JOINT RightFoot
			{
				OFFSET 42.372261 -0.000004 0.000013
				CHANNELS 3 Zrotation Yrotation Xrotation
				JOINT RightToe
				{
					OFFSET 17.299992 -0.000006 0.000004
					CHANNELS 3 Zrotation Yrotation Xrotation
					End Site
					{
						OFFSET 0.000000 0.000000 0.000000
					}
				}
			}
		}
	}
	JOINT Spine
	{
		OFFSET 6.901968 -2.603730 -0.000002
		CHANNELS 3 Zrotation Yrotation Xrotation
		JOINT Spine1
		{
			OFFSET 12.588100 -0.000001 0.000009
			CHANNELS 3 Zrotation Yrotation Xrotation
			JOINT Spine2
			{
				OFFSET 12.343201 0.000005 -0.000005
				CHANNELS 3 Zrotation Yrotation Xrotation
				JOINT Neck
				{
					OFFSET 25.832893 -0.000008 -0.000006
					CHANNELS 3 Zrotation Yrotation Xrotation
					JOINT Head
					{
						OFFSET 11.766606 0.000005 0.000008
						CHANNELS 3 Zrotation Yrotation Xrotation
						End Site
						{
							OFFSET 0.000000 0.000000 0.000000
						}
					}
				}
				JOINT LeftShoulder
				{
					OFFSET 19.745903 -1.480373 6.000100
					CHANNELS 3 Zrotation Yrotation Xrotation
					JOINT LeftArm
					{
						OFFSET 11.284123 -0.000007 -0.000024
						CHANNELS 3 Zrotation Yrotation Xrotation
						JOINT LeftForeArm
						{
							OFFSET 33.000053 0.000004 0.000036
							CHANNELS 3 Zrotation Yrotation Xrotation
							JOINT LeftHand
							{
								OFFSET 25.200006 0.000021 -0.000003
								CHANNELS 3 Zrotation Yrotation Xrotation
								End Site
								{
									OFFSET 0.000000 0.000000 0.000000
								}
							}
						}
					}
				}
				JOINT RightShoulder
				{
					OFFSET 19.746101 -1.480381 -6.000079
					CHANNELS 3 Zrotation Yrotation Xrotation
					JOINT RightArm
					{
						OFFSET 11.284133 -0.000015 -0.000008
						CHANNELS 3 Zrotation Yrotation Xrotation
						JOINT RightForeArm
						{
							OFFSET 33.000099 0.000016 0.000006
							CHANNELS 3 Zrotation Yrotation Xrotation
							JOINT RightHand
							{
								OFFSET 25.199781 0.000142 0.000425
								CHANNELS 3 Zrotation Yrotation Xrotation
								End Site
								{
									OFFSET 0.000000 0.000000 0.000000
								}
							}
						}
					}
				}
			}
		}
	}
}
MOTION
Frames: 8
Frame Time: 0.033333
109.092903 55.674629 103.207603 69.492079 -46.244793 102.086794 99.971000 -5.611497 178.024906 -129.659694 5.520838 -15.110684 102.740996 9.419852 -7.315368 21.454553 0.003094 -0.000001 97.294624 5.346604 -161.046845 -124.807104 -4.718474 -0.693778 101.023101 1.525253 11.615977 21.454567 -0.003096 -0.000023 19.210911 -0.472171 1.203621 28.398383 -1.224367 2.255164 28.080485 -1.210594 2.262535 -1.042109 1.038193 -6.172275 -33.636506 14.196768 -13.943550 85.241464 -72.502294 94.511206 -48.523061 7.791128 -31.837991 -61.026381 -21.534239 2.587694 -43.601342 -32.331653 75.167051 81.424987 77.240308 -97.915468 -57.467402 4.998873 15.119310 -42.634358 17.867251 -1.745238 -12.633919 53.220800 -25.339259 
109.513199 54.956009 104.063202 73.629344 -42.204811 98.221508 93.523834 -3.251207 175.366664 -134.343100 6.024226 -16.214213 104.269313 10.221251 -6.150249 21.454555 0.003082 0.000003 97.736606 7.081101 -162.341179 -125.393981 -4.915353 -0.541703 99.485844 1.677841 12.491228 21.454563 -0.003110 -0.000016 19.933581 -1.033306 1.009295 29.842835 -2.291052 1.719557 29.524620 -2.280495 1.733388 -0.818713 0.692416 -6.089263 -32.812287 14.262470 -13.826351 84.951496 -72.161604 94.826515 -48.759057 7.105340 -29.897343 -58.330676 -21.751304 2.499345 -42.193357 -33.542407 72.947691 79.463302 75.985663 -99.955249 -56.741182 5.364500 11.812750 -39.887796 16.462629 -1.578040 -6.640956 55.260947 -17.354204 
109.952499 53.964901 104.703201 76.859996 -38.248909 95.840142 87.768716 -0.843997 174.472470 -134.947995 6.182631 -17.023869 104.032210 10.785345 -5.402590 21.454545 0.003081 0.000006 99.169272 8.898102 -162.125359 -128.983396 -5.252014 1.032204 99.219433 0.743631 13.354165 21.454568 -0.003109 -0.000017 20.493192 -1.365658 0.871280 30.966138 -2.913824 1.347701 30.647687 -2.905512 1.365304 -1.051804 0.006961 -6.364908 -32.530985 14.465576 -14.308690 85.191392 -71.529839 94.645030 -49.100857 6.632577 -27.987988 -55.483232 -21.396700 2.369359 -40.810336 -34.965555 70.456536 78.602111 75.267947 -100.862196 -55.530616 6.363756 1.938097 -37.825512 16.831249 -1.548751 7.378869 56.599356 -0.868063 
110.434998 52.831600 105.012100 79.999041 -35.379376 94.214762 84.035287 0.886392 175.859326 -131.071002 5.677465 -14.261076 103.652799 8.946980 -7.039026 21.454553 0.003089 -0.000001 99.145277 11.355490 -162.364402 -130.569694 -5.163331 -1.933863 100.810894 2.655216 13.645030 21.454567 -0.003120 -0.000016 20.742270 -1.644089 0.624413 31.473799 -3.395572 0.780846 31.155119 -3.390667 0.801381 -2.357927 -0.255992 -6.499700 -31.511641 14.781631 -14.486961 85.260507 -70.687929 94.650330 -49.430697 6.608153 -26.786132 -52.543720 -20.978718 2.236530 -39.795329 -36.135768 68.144360 75.910757 74.996119 -103.534999 -54.980622 7.015348 -8.573494 -35.772668 17.146445 -1.518889 20.383991 55.031504 14.443876 
110.940201 52.087372 105.079498 81.831745 -33.633081 92.963608 84.284234 1.157101 177.423043 -127.349997 5.237219 -11.205685 103.325811 6.844509 -9.488585 21.454553 0.003098 -0.000002 99.220710 12.292104 -159.661150 -131.727097 -5.412926 1.940667 99.533314 0.159543 13.957155 21.454555 -0.003111 -0.000014 20.754010 -1.878766 0.574266 31.502414 -3.842565 0.618344 31.183560 -3.838634 0.641597 -4.666058 -0.076301 -6.706235 -30.027106 14.436170 -14.218802 85.357509 -70.146910 94.602116 -50.201870 6.786934 -25.893257 -49.629572 -20.759460 2.123179 -39.032359 -37.312644 66.075428 75.350681 74.151908 -104.151007 -53.643944 6.598841 -14.383885 -34.216618 18.252212 -1.553840 23.065996 52.045000 18.358281 
111.393204 51.014011 104.763496 82.504102 -33.014478 91.589340 86.621388 0.165397 177.975141 -127.928705 5.042113 -9.157465 109.349095 5.889400 -9.009720 21.454555 0.003096 -0.000002 99.347724 11.957699 -156.068306 -132.694402 -5.842374 4.685764 101.712397 -1.965694 14.201894 21.454558 -0.003108 -0.000019 20.490871 -2.055298 0.796038 30.971114 -4.248075 1.016197 30.652117 -4.241733 1.041899 -6.874506 -0.309576 -6.839982 -28.766510 14.305946 -14.124829 85.018322 -70.117513 94.938236 -51.317124 7.178764 -25.180370 -47.274140 -20.085274 2.002132 -38.303984 -38.198335 64.535234 75.880185 73.828806 -103.655210 -52.393449 5.150494 -9.949881 -34.278483 16.975279 -1.473075 15.210643 52.005706 8.811439 
111.690804 50.413010 104.066200 83.473982 -33.345257 90.627253 87.105259 -0.388601 177.128430 -127.293402 4.946972 -8.703001 114.031791 5.842079 -7.874009 21.454551 0.003085 0.000001 98.733943 11.092997 -153.733871 -132.284399 -6.090153 8.337979 102.941599 -4.648212 13.298502 21.454555 -0.003115 -0.000017 20.145593 -2.069551 0.852840 30.277993 -4.289509 1.137474 29.958992 -4.282453 1.163420 -7.171350 -1.647937 -6.716667 -28.956225 14.565674 -14.492200 85.225270 -70.080603 94.737920 -51.711765 7.284900 -23.280334 -45.905541 -19.585738 1.926470 -37.263917 -39.602431 63.009841 75.028972 73.876241 -104.488528 -52.543751 4.073628 -4.375016 -33.627910 14.293970 -1.285693 8.237931 52.591623 1.411555 
111.937798 50.078350 103.151398 84.896820 -33.435050 90.068557 85.700781 -0.476114 174.572341 -127.441399 5.050553 -9.624433 113.199204 6.351799 -6.933493 21.454555 0.003094 -0.000001 98.489074 10.943612 -153.569195 -131.345098 -6.263102 9.883410 104.788209 -5.901108 12.815250 21.454551 -0.003102 -0.000019 20.072242 -2.068466 0.628747 30.139132 -4.228954 0.699656 29.820118 -4.224513 0.725252 -7.255802 -2.122007 -6.576267 -29.088116 14.874907 -14.643997 85.075252 -70.790307 94.823701 -52.031476 7.038089 -22.048409 -46.178742 -19.684788 1.941412 -35.997044 -39.809232 62.206460 75.263589 73.751037 -104.267434 -52.399873 3.917907 -3.349206 -33.822660 15.093120 -1.341572 6.357275 53.311033 -0.940547 
